<?xml version="1.0" encoding="UTF-8" standalone="no"?>
<!DOCTYPE svg PUBLIC "-//W3C//DTD SVG 1.1//EN"
 "http://www.w3.org/Graphics/SVG/1.1/DTD/svg11.dtd">
<!-- Generated by graphviz version 8.1.0 (20230707.2238)
 -->
<!-- Title: snakemake_dag Pages: 1 -->
<svg width="1615pt" height="1219pt"
 viewBox="0.00 0.00 1614.62 1219.00" xmlns="http://www.w3.org/2000/svg" xmlns:xlink="http://www.w3.org/1999/xlink">
<g id="graph0" class="graph" transform="scale(1 1) rotate(0) translate(4 1215)">
<title>snakemake_dag</title>
<polygon fill="white" stroke="none" points="-4,4 -4,-1215 1610.62,-1215 1610.62,4 -4,4"/>
<!-- 0 -->
<g id="node1" class="node">
<title>0</title>
<path fill="none" stroke="#56d873" stroke-width="2" d="M558.62,-36C558.62,-36 528.62,-36 528.62,-36 522.62,-36 516.62,-30 516.62,-24 516.62,-24 516.62,-12 516.62,-12 516.62,-6 522.62,0 528.62,0 528.62,0 558.62,0 558.62,0 564.62,0 570.62,-6 570.62,-12 570.62,-12 570.62,-24 570.62,-24 570.62,-30 564.62,-36 558.62,-36"/>
<text text-anchor="middle" x="543.62" y="-14.88" font-family="sans" font-size="10.00">all</text>
</g>
<!-- 1 -->
<g id="node2" class="node">
<title>1</title>
<path fill="none" stroke="#bed856" stroke-width="2" d="M568.12,-108C568.12,-108 519.12,-108 519.12,-108 513.12,-108 507.12,-102 507.12,-96 507.12,-96 507.12,-84 507.12,-84 507.12,-78 513.12,-72 519.12,-72 519.12,-72 568.12,-72 568.12,-72 574.12,-72 580.12,-78 580.12,-84 580.12,-84 580.12,-96 580.12,-96 580.12,-102 574.12,-108 568.12,-108"/>
<text text-anchor="middle" x="543.62" y="-86.88" font-family="sans" font-size="10.00">plot_results</text>
</g>
<!-- 1&#45;&gt;0 -->
<g id="edge1" class="edge">
<title>1&#45;&gt;0</title>
<path fill="none" stroke="grey" stroke-width="2" d="M543.62,-71.34C543.62,-64.75 543.62,-57.08 543.62,-49.67"/>
<polygon fill="grey" stroke="grey" stroke-width="2" points="547.13,-49.9 543.62,-39.9 540.13,-49.9 547.13,-49.9"/>
</g>
<!-- 2 -->
<g id="node3" class="node">
<title>2</title>
<path fill="none" stroke="#5692d8" stroke-width="2" stroke-dasharray="5,2" d="M249.38,-468C249.38,-468 189.88,-468 189.88,-468 183.88,-468 177.88,-462 177.88,-456 177.88,-456 177.88,-444 177.88,-444 177.88,-438 183.88,-432 189.88,-432 189.88,-432 249.38,-432 249.38,-432 255.38,-432 261.38,-438 261.38,-444 261.38,-444 261.38,-456 261.38,-456 261.38,-462 255.38,-468 249.38,-468"/>
<text text-anchor="middle" x="219.62" y="-446.88" font-family="sans" font-size="10.00">methylDackel</text>
</g>
<!-- 2&#45;&gt;1 -->
<g id="edge2" class="edge">
<title>2&#45;&gt;1</title>
<path fill="none" stroke="grey" stroke-width="2" d="M232.21,-431.13C249.27,-405.1 277.62,-354.67 277.62,-307 277.62,-307 277.62,-307 277.62,-233 277.62,-136.13 416.61,-105.11 493.65,-95.35"/>
<polygon fill="grey" stroke="grey" stroke-width="2" points="493.83,-98.51 503.36,-93.87 493.02,-91.55 493.83,-98.51"/>
</g>
<!-- 3 -->
<g id="node4" class="node">
<title>3</title>
<path fill="none" stroke="#56c1d8" stroke-width="2" stroke-dasharray="5,2" d="M612,-1116C612,-1116 559.25,-1116 559.25,-1116 553.25,-1116 547.25,-1110 547.25,-1104 547.25,-1104 547.25,-1092 547.25,-1092 547.25,-1086 553.25,-1080 559.25,-1080 559.25,-1080 612,-1080 612,-1080 618,-1080 624,-1086 624,-1092 624,-1092 624,-1104 624,-1104 624,-1110 618,-1116 612,-1116"/>
<text text-anchor="middle" x="585.62" y="-1094.88" font-family="sans" font-size="10.00">get_genome</text>
</g>
<!-- 3&#45;&gt;2 -->
<g id="edge5" class="edge">
<title>3&#45;&gt;2</title>
<path fill="none" stroke="grey" stroke-width="2" d="M546.36,-1081.92C543.76,-1081.2 541.17,-1080.55 538.62,-1080 435.78,-1057.91 157.14,-1097.6 66.62,-1044 26,-1019.94 8.62,-1002.21 8.62,-955 8.62,-955 8.62,-955 8.62,-593 8.62,-517.82 101.97,-479.83 164.48,-462.81"/>
<polygon fill="grey" stroke="grey" stroke-width="2" points="166.12,-465.49 174.93,-459.59 164.37,-458.71 166.12,-465.49"/>
</g>
<!-- 9 -->
<g id="node10" class="node">
<title>9</title>
<path fill="none" stroke="#d87556" stroke-width="2" stroke-dasharray="5,2" d="M135.75,-1044C135.75,-1044 87.5,-1044 87.5,-1044 81.5,-1044 75.5,-1038 75.5,-1032 75.5,-1032 75.5,-1020 75.5,-1020 75.5,-1014 81.5,-1008 87.5,-1008 87.5,-1008 135.75,-1008 135.75,-1008 141.75,-1008 147.75,-1014 147.75,-1020 147.75,-1020 147.75,-1032 147.75,-1032 147.75,-1038 141.75,-1044 135.75,-1044"/>
<text text-anchor="middle" x="111.62" y="-1022.88" font-family="sans" font-size="10.00">align_reads</text>
</g>
<!-- 3&#45;&gt;9 -->
<g id="edge16" class="edge">
<title>3&#45;&gt;9</title>
<path fill="none" stroke="grey" stroke-width="2" d="M546.33,-1082.06C543.74,-1081.3 541.16,-1080.61 538.62,-1080 467.94,-1063.06 257.99,-1041.25 161.34,-1031.76"/>
<polygon fill="grey" stroke="grey" stroke-width="2" points="161.77,-1027.99 151.48,-1030.51 161.09,-1034.96 161.77,-1027.99"/>
</g>
<!-- 16 -->
<g id="node17" class="node">
<title>16</title>
<path fill="none" stroke="#d87556" stroke-width="2" stroke-dasharray="5,2" d="M352.75,-1044C352.75,-1044 304.5,-1044 304.5,-1044 298.5,-1044 292.5,-1038 292.5,-1032 292.5,-1032 292.5,-1020 292.5,-1020 292.5,-1014 298.5,-1008 304.5,-1008 304.5,-1008 352.75,-1008 352.75,-1008 358.75,-1008 364.75,-1014 364.75,-1020 364.75,-1020 364.75,-1032 364.75,-1032 364.75,-1038 358.75,-1044 352.75,-1044"/>
<text text-anchor="middle" x="328.62" y="-1022.88" font-family="sans" font-size="10.00">align_reads</text>
</g>
<!-- 3&#45;&gt;16 -->
<g id="edge24" class="edge">
<title>3&#45;&gt;16</title>
<path fill="none" stroke="grey" stroke-width="2" d="M546.49,-1082.51C543.84,-1081.63 541.2,-1080.79 538.62,-1080 484.37,-1063.39 421.12,-1047.95 378.32,-1038.07"/>
<polygon fill="grey" stroke="grey" stroke-width="2" points="378.26,-1034 367.73,-1035.18 376.7,-1040.83 378.26,-1034"/>
</g>
<!-- 23 -->
<g id="node24" class="node">
<title>23</title>
<path fill="none" stroke="#d87556" stroke-width="2" stroke-dasharray="5,2" d="M511.75,-1044C511.75,-1044 463.5,-1044 463.5,-1044 457.5,-1044 451.5,-1038 451.5,-1032 451.5,-1032 451.5,-1020 451.5,-1020 451.5,-1014 457.5,-1008 463.5,-1008 463.5,-1008 511.75,-1008 511.75,-1008 517.75,-1008 523.75,-1014 523.75,-1020 523.75,-1020 523.75,-1032 523.75,-1032 523.75,-1038 517.75,-1044 511.75,-1044"/>
<text text-anchor="middle" x="487.62" y="-1022.88" font-family="sans" font-size="10.00">align_reads</text>
</g>
<!-- 3&#45;&gt;23 -->
<g id="edge32" class="edge">
<title>3&#45;&gt;23</title>
<path fill="none" stroke="grey" stroke-width="2" d="M560.64,-1079.15C549.24,-1071.01 535.53,-1061.22 523.08,-1052.33"/>
<polygon fill="grey" stroke="grey" stroke-width="2" points="524.73,-1048.78 514.56,-1045.81 520.67,-1054.47 524.73,-1048.78"/>
</g>
<!-- 32 -->
<g id="node33" class="node">
<title>32</title>
<path fill="none" stroke="#d85656" stroke-width="2" d="M449.5,-468C449.5,-468 315.75,-468 315.75,-468 309.75,-468 303.75,-462 303.75,-456 303.75,-456 303.75,-444 303.75,-444 303.75,-438 309.75,-432 315.75,-432 315.75,-432 449.5,-432 449.5,-432 455.5,-432 461.5,-438 461.5,-444 461.5,-444 461.5,-456 461.5,-456 461.5,-462 455.5,-468 449.5,-468"/>
<text text-anchor="middle" x="382.62" y="-453.25" font-family="sans" font-size="10.00">compute_meth_observations</text>
<text text-anchor="middle" x="382.62" y="-440.5" font-family="sans" font-size="10.00">scatteritem: 1&#45;of&#45;3</text>
</g>
<!-- 3&#45;&gt;32 -->
<g id="edge43" class="edge">
<title>3&#45;&gt;32</title>
<path fill="none" stroke="grey" stroke-width="2" d="M586.68,-1079.09C590.29,-1002.37 595.39,-696.62 462.62,-504 454.89,-492.77 443.92,-483.31 432.58,-475.62"/>
<polygon fill="grey" stroke="grey" stroke-width="2" points="434.02,-472.14 423.68,-469.81 430.3,-478.08 434.02,-472.14"/>
</g>
<!-- 33 -->
<g id="node34" class="node">
<title>33</title>
<path fill="none" stroke="#56d863" stroke-width="2" stroke-dasharray="5,2" d="M623.62,-540C623.62,-540 559.62,-540 559.62,-540 553.62,-540 547.62,-534 547.62,-528 547.62,-528 547.62,-516 547.62,-516 547.62,-510 553.62,-504 559.62,-504 559.62,-504 623.62,-504 623.62,-504 629.62,-504 635.62,-510 635.62,-516 635.62,-516 635.62,-528 635.62,-528 635.62,-534 629.62,-540 623.62,-540"/>
<text text-anchor="middle" x="591.62" y="-518.88" font-family="sans" font-size="10.00">genome_index</text>
</g>
<!-- 3&#45;&gt;33 -->
<g id="edge48" class="edge">
<title>3&#45;&gt;33</title>
<path fill="none" stroke="grey" stroke-width="2" d="M588.73,-1079.13C593.13,-1052.28 600.62,-999.87 600.62,-955 600.62,-955 600.62,-955 600.62,-665 600.62,-626.58 597.3,-582.42 594.69,-553.69"/>
<polygon fill="grey" stroke="grey" stroke-width="2" points="597.91,-553.54 593.49,-543.91 590.94,-554.19 597.91,-553.54"/>
</g>
<!-- 36 -->
<g id="node37" class="node">
<title>36</title>
<path fill="none" stroke="#56d8b1" stroke-width="2" stroke-dasharray="5,2" d="M702.38,-684C702.38,-684 642.88,-684 642.88,-684 636.88,-684 630.88,-678 630.88,-672 630.88,-672 630.88,-660 630.88,-660 630.88,-654 636.88,-648 642.88,-648 642.88,-648 702.38,-648 702.38,-648 708.38,-648 714.38,-654 714.38,-660 714.38,-660 714.38,-672 714.38,-672 714.38,-678 708.38,-684 702.38,-684"/>
<text text-anchor="middle" x="672.62" y="-662.88" font-family="sans" font-size="10.00">filter_genome</text>
</g>
<!-- 3&#45;&gt;36 -->
<g id="edge51" class="edge">
<title>3&#45;&gt;36</title>
<path fill="none" stroke="grey" stroke-width="2" d="M600.94,-1079.07C621.27,-1053.38 654.62,-1003.79 654.62,-955 654.62,-955 654.62,-955 654.62,-809 654.62,-770.35 661.27,-726.24 666.49,-697.58"/>
<polygon fill="grey" stroke="grey" stroke-width="2" points="670.48,-697.32 668.9,-686.84 663.6,-696.02 670.48,-697.32"/>
</g>
<!-- 40 -->
<g id="node41" class="node">
<title>40</title>
<path fill="none" stroke="#d85656" stroke-width="2" d="M625.5,-468C625.5,-468 491.75,-468 491.75,-468 485.75,-468 479.75,-462 479.75,-456 479.75,-456 479.75,-444 479.75,-444 479.75,-438 485.75,-432 491.75,-432 491.75,-432 625.5,-432 625.5,-432 631.5,-432 637.5,-438 637.5,-444 637.5,-444 637.5,-456 637.5,-456 637.5,-462 631.5,-468 625.5,-468"/>
<text text-anchor="middle" x="558.62" y="-453.25" font-family="sans" font-size="10.00">compute_meth_observations</text>
<text text-anchor="middle" x="558.62" y="-440.5" font-family="sans" font-size="10.00">scatteritem: 2&#45;of&#45;3</text>
</g>
<!-- 3&#45;&gt;40 -->
<g id="edge55" class="edge">
<title>3&#45;&gt;40</title>
<path fill="none" stroke="grey" stroke-width="2" d="M624.94,-1087.04C681.11,-1070.17 777.62,-1030.25 777.62,-955 777.62,-955 777.62,-955 777.62,-593 777.62,-552.55 786.52,-533.29 758.62,-504 750.61,-495.58 699.54,-482.12 651.02,-470.87"/>
<polygon fill="grey" stroke="grey" stroke-width="2" points="650.96,-466.81 640.43,-467.99 649.4,-473.63 650.96,-466.81"/>
</g>
<!-- 44 -->
<g id="node45" class="node">
<title>44</title>
<path fill="none" stroke="#d85656" stroke-width="2" d="M801.5,-468C801.5,-468 667.75,-468 667.75,-468 661.75,-468 655.75,-462 655.75,-456 655.75,-456 655.75,-444 655.75,-444 655.75,-438 661.75,-432 667.75,-432 667.75,-432 801.5,-432 801.5,-432 807.5,-432 813.5,-438 813.5,-444 813.5,-444 813.5,-456 813.5,-456 813.5,-462 807.5,-468 801.5,-468"/>
<text text-anchor="middle" x="734.62" y="-453.25" font-family="sans" font-size="10.00">compute_meth_observations</text>
<text text-anchor="middle" x="734.62" y="-440.5" font-family="sans" font-size="10.00">scatteritem: 3&#45;of&#45;3</text>
</g>
<!-- 3&#45;&gt;44 -->
<g id="edge63" class="edge">
<title>3&#45;&gt;44</title>
<path fill="none" stroke="grey" stroke-width="2" d="M624.88,-1094.05C699.32,-1086.1 853.62,-1057.28 853.62,-955 853.62,-955 853.62,-955 853.62,-593 853.62,-542.86 809.51,-501.14 775,-476.17"/>
<polygon fill="grey" stroke="grey" stroke-width="2" points="776.86,-472.81 766.65,-469.96 772.86,-478.55 776.86,-472.81"/>
</g>
<!-- 4 -->
<g id="node5" class="node">
<title>4</title>
<path fill="none" stroke="#56d892" stroke-width="2" stroke-dasharray="5,2" d="M367.88,-612C367.88,-612 281.38,-612 281.38,-612 275.38,-612 269.38,-606 269.38,-600 269.38,-600 269.38,-588 269.38,-588 269.38,-582 275.38,-576 281.38,-576 281.38,-576 367.88,-576 367.88,-576 373.88,-576 379.88,-582 379.88,-588 379.88,-588 379.88,-600 379.88,-600 379.88,-606 373.88,-612 367.88,-612"/>
<text text-anchor="middle" x="324.62" y="-590.88" font-family="sans" font-size="10.00">downsample_bams</text>
</g>
<!-- 4&#45;&gt;2 -->
<g id="edge6" class="edge">
<title>4&#45;&gt;2</title>
<path fill="none" stroke="grey" stroke-width="2" d="M268.53,-581.36C245.91,-573.62 222.03,-560.86 208.62,-540 197.46,-522.63 200.82,-499.37 206.64,-480.99"/>
<polygon fill="grey" stroke="grey" stroke-width="2" points="209.91,-481.49 210.04,-470.9 203.33,-479.1 209.91,-481.49"/>
</g>
<!-- 27 -->
<g id="node28" class="node">
<title>27</title>
<path fill="none" stroke="#9fd856" stroke-width="2" stroke-dasharray="5,2" d="M441.25,-540C441.25,-540 240,-540 240,-540 234,-540 228,-534 228,-528 228,-528 228,-516 228,-516 228,-510 234,-504 240,-504 240,-504 441.25,-504 441.25,-504 447.25,-504 453.25,-510 453.25,-516 453.25,-516 453.25,-528 453.25,-528 453.25,-534 447.25,-540 441.25,-540"/>
<text text-anchor="middle" x="340.62" y="-518.88" font-family="sans" font-size="10.00">aligned_downsampled_reads_dedup_index</text>
</g>
<!-- 4&#45;&gt;27 -->
<g id="edge36" class="edge">
<title>4&#45;&gt;27</title>
<path fill="none" stroke="grey" stroke-width="2" d="M328.66,-575.34C330.19,-568.67 331.97,-560.89 333.68,-553.39"/>
<polygon fill="grey" stroke="grey" stroke-width="2" points="337.72,-553.43 336.53,-542.9 330.89,-551.87 337.72,-553.43"/>
</g>
<!-- 4&#45;&gt;32 -->
<g id="edge45" class="edge">
<title>4&#45;&gt;32</title>
<path fill="none" stroke="grey" stroke-width="2" d="M268.51,-578.27C249.29,-570.25 229.82,-558.11 218.62,-540 210.21,-526.39 209.21,-516.94 218.62,-504 228.07,-491.02 258.41,-479.61 290.46,-470.74"/>
<polygon fill="grey" stroke="grey" stroke-width="2" points="292.03,-473.41 300.79,-467.46 290.23,-466.65 292.03,-473.41"/>
</g>
<!-- 4&#45;&gt;40 -->
<g id="edge57" class="edge">
<title>4&#45;&gt;40</title>
<path fill="none" stroke="grey" stroke-width="2" d="M380.63,-576.91C406.65,-568.1 437.36,-555.74 462.62,-540 489.89,-523.01 516.32,-497.65 534.52,-478.34"/>
<polygon fill="grey" stroke="grey" stroke-width="2" points="537.04,-480.59 541.25,-470.87 531.89,-475.85 537.04,-480.59"/>
</g>
<!-- 4&#45;&gt;44 -->
<g id="edge65" class="edge">
<title>4&#45;&gt;44</title>
<path fill="none" stroke="grey" stroke-width="2" d="M380.48,-590.24C492.05,-584.16 733.94,-567.88 758.62,-540 773.21,-523.53 765.21,-499.08 754.67,-479.98"/>
<polygon fill="grey" stroke="grey" stroke-width="2" points="757.14,-477.64 748.97,-470.89 751.15,-481.26 757.14,-477.64"/>
</g>
<!-- 5 -->
<g id="node6" class="node">
<title>5</title>
<path fill="none" stroke="#d8a456" stroke-width="2" stroke-dasharray="5,2" d="M339.5,-684C339.5,-684 283.75,-684 283.75,-684 277.75,-684 271.75,-678 271.75,-672 271.75,-672 271.75,-660 271.75,-660 271.75,-654 277.75,-648 283.75,-648 283.75,-648 339.5,-648 339.5,-648 345.5,-648 351.5,-654 351.5,-660 351.5,-660 351.5,-672 351.5,-672 351.5,-678 345.5,-684 339.5,-684"/>
<text text-anchor="middle" x="311.62" y="-662.88" font-family="sans" font-size="10.00">merge_bams</text>
</g>
<!-- 5&#45;&gt;4 -->
<g id="edge8" class="edge">
<title>5&#45;&gt;4</title>
<path fill="none" stroke="grey" stroke-width="2" d="M314.91,-647.34C316.13,-640.75 317.55,-633.08 318.93,-625.67"/>
<polygon fill="grey" stroke="grey" stroke-width="2" points="322.92,-625.37 321.3,-614.9 316.03,-624.09 322.92,-625.37"/>
</g>
<!-- 6 -->
<g id="node7" class="node">
<title>6</title>
<path fill="none" stroke="#d89556" stroke-width="2" stroke-dasharray="5,2" d="M189,-756C189,-756 94.25,-756 94.25,-756 88.25,-756 82.25,-750 82.25,-744 82.25,-744 82.25,-732 82.25,-732 82.25,-726 88.25,-720 94.25,-720 94.25,-720 189,-720 189,-720 195,-720 201,-726 201,-732 201,-732 201,-744 201,-744 201,-750 195,-756 189,-756"/>
<text text-anchor="middle" x="141.62" y="-734.88" font-family="sans" font-size="10.00">markduplicates_bam</text>
</g>
<!-- 6&#45;&gt;5 -->
<g id="edge9" class="edge">
<title>6&#45;&gt;5</title>
<path fill="none" stroke="grey" stroke-width="2" d="M184.96,-719.15C207.5,-709.88 235.22,-698.46 258.98,-688.68"/>
<polygon fill="grey" stroke="grey" stroke-width="2" points="261.08,-691.77 269,-684.73 258.42,-685.3 261.08,-691.77"/>
</g>
<!-- 7 -->
<g id="node8" class="node">
<title>7</title>
<path fill="none" stroke="#d8d356" stroke-width="2" stroke-dasharray="5,2" d="M176.62,-828C176.62,-828 88.62,-828 88.62,-828 82.62,-828 76.62,-822 76.62,-816 76.62,-816 76.62,-804 76.62,-804 76.62,-798 82.62,-792 88.62,-792 88.62,-792 176.62,-792 176.62,-792 182.62,-792 188.62,-798 188.62,-804 188.62,-804 188.62,-816 188.62,-816 188.62,-822 182.62,-828 176.62,-828"/>
<text text-anchor="middle" x="132.62" y="-806.88" font-family="sans" font-size="10.00">filter_aligned_reads</text>
</g>
<!-- 7&#45;&gt;6 -->
<g id="edge12" class="edge">
<title>7&#45;&gt;6</title>
<path fill="none" stroke="grey" stroke-width="2" d="M134.9,-791.34C135.74,-784.75 136.73,-777.08 137.68,-769.67"/>
<polygon fill="grey" stroke="grey" stroke-width="2" points="141.52,-770.27 139.32,-759.9 134.58,-769.37 141.52,-770.27"/>
</g>
<!-- 8 -->
<g id="node9" class="node">
<title>8</title>
<path fill="none" stroke="#68d856" stroke-width="2" stroke-dasharray="5,2" d="M153.75,-972C153.75,-972 69.5,-972 69.5,-972 63.5,-972 57.5,-966 57.5,-960 57.5,-960 57.5,-948 57.5,-948 57.5,-942 63.5,-936 69.5,-936 69.5,-936 153.75,-936 153.75,-936 159.75,-936 165.75,-942 165.75,-948 165.75,-948 165.75,-960 165.75,-960 165.75,-966 159.75,-972 153.75,-972"/>
<text text-anchor="middle" x="111.62" y="-950.88" font-family="sans" font-size="10.00">sort_aligned_reads</text>
</g>
<!-- 8&#45;&gt;7 -->
<g id="edge13" class="edge">
<title>8&#45;&gt;7</title>
<path fill="none" stroke="grey" stroke-width="2" d="M90.32,-935.14C80.82,-925.78 70.65,-913.47 65.62,-900 60.03,-885.01 58.65,-878.4 65.62,-864 70.8,-853.31 79.29,-844.13 88.51,-836.55"/>
<polygon fill="grey" stroke="grey" stroke-width="2" points="90.76,-838.75 96.69,-829.96 86.58,-833.13 90.76,-838.75"/>
</g>
<!-- 12 -->
<g id="node13" class="node">
<title>12</title>
<path fill="none" stroke="#78d856" stroke-width="2" stroke-dasharray="5,2" d="M178.88,-900C178.88,-900 86.38,-900 86.38,-900 80.38,-900 74.38,-894 74.38,-888 74.38,-888 74.38,-876 74.38,-876 74.38,-870 80.38,-864 86.38,-864 86.38,-864 178.88,-864 178.88,-864 184.88,-864 190.88,-870 190.88,-876 190.88,-876 190.88,-888 190.88,-888 190.88,-894 184.88,-900 178.88,-900"/>
<text text-anchor="middle" x="132.62" y="-878.88" font-family="sans" font-size="10.00">aligned_reads_index</text>
</g>
<!-- 8&#45;&gt;12 -->
<g id="edge19" class="edge">
<title>8&#45;&gt;12</title>
<path fill="none" stroke="grey" stroke-width="2" d="M116.92,-935.34C118.95,-928.59 121.32,-920.69 123.59,-913.11"/>
<polygon fill="grey" stroke="grey" stroke-width="2" points="127.73,-913.49 127.25,-902.9 121.03,-911.47 127.73,-913.49"/>
</g>
<!-- 9&#45;&gt;8 -->
<g id="edge15" class="edge">
<title>9&#45;&gt;8</title>
<path fill="none" stroke="grey" stroke-width="2" d="M111.62,-1007.34C111.62,-1000.75 111.62,-993.08 111.62,-985.67"/>
<polygon fill="grey" stroke="grey" stroke-width="2" points="115.13,-985.9 111.62,-975.9 108.13,-985.9 115.13,-985.9"/>
</g>
<!-- 10 -->
<g id="node11" class="node">
<title>10</title>
<path fill="none" stroke="#afd856" stroke-width="2" stroke-dasharray="5,2" d="M136.38,-1116C136.38,-1116 76.88,-1116 76.88,-1116 70.88,-1116 64.88,-1110 64.88,-1104 64.88,-1104 64.88,-1092 64.88,-1092 64.88,-1086 70.88,-1080 76.88,-1080 76.88,-1080 136.38,-1080 136.38,-1080 142.38,-1080 148.38,-1086 148.38,-1092 148.38,-1092 148.38,-1104 148.38,-1104 148.38,-1110 142.38,-1116 136.38,-1116"/>
<text text-anchor="middle" x="106.62" y="-1094.88" font-family="sans" font-size="10.00">trim_fastq_pe</text>
</g>
<!-- 10&#45;&gt;9 -->
<g id="edge17" class="edge">
<title>10&#45;&gt;9</title>
<path fill="none" stroke="grey" stroke-width="2" d="M107.89,-1079.34C108.36,-1072.75 108.91,-1065.08 109.43,-1057.67"/>
<polygon fill="grey" stroke="grey" stroke-width="2" points="113.12,-1058.13 110.35,-1047.9 106.14,-1057.63 113.12,-1058.13"/>
</g>
<!-- 11 -->
<g id="node12" class="node">
<title>11</title>
<path fill="none" stroke="#56d0d8" stroke-width="2" stroke-dasharray="5,2" d="M195.25,-1211C195.25,-1211 12,-1211 12,-1211 6,-1211 0,-1205 0,-1199 0,-1199 0,-1164 0,-1164 0,-1158 6,-1152 12,-1152 12,-1152 195.25,-1152 195.25,-1152 201.25,-1152 207.25,-1158 207.25,-1164 207.25,-1164 207.25,-1199 207.25,-1199 207.25,-1205 201.25,-1211 195.25,-1211"/>
<text text-anchor="middle" x="103.62" y="-1197.5" font-family="sans" font-size="10.00">get_fastq_pe</text>
<text text-anchor="middle" x="103.62" y="-1184.75" font-family="sans" font-size="10.00">SRA: SRR13050995</text>
<text text-anchor="middle" x="103.62" y="-1172" font-family="sans" font-size="10.00">accession: SRR13050995</text>
<text text-anchor="middle" x="103.62" y="-1159.25" font-family="sans" font-size="10.00">platform: TruSeq_HG002_LAB01_REP01</text>
</g>
<!-- 11&#45;&gt;10 -->
<g id="edge18" class="edge">
<title>11&#45;&gt;10</title>
<path fill="none" stroke="grey" stroke-width="2" d="M104.71,-1151.08C104.97,-1144.07 105.24,-1136.59 105.5,-1129.54"/>
<polygon fill="grey" stroke="grey" stroke-width="2" points="109.1,-1129.88 105.97,-1119.76 102.11,-1129.62 109.1,-1129.88"/>
</g>
<!-- 12&#45;&gt;7 -->
<g id="edge14" class="edge">
<title>12&#45;&gt;7</title>
<path fill="none" stroke="grey" stroke-width="2" d="M132.62,-863.34C132.62,-856.75 132.62,-849.08 132.62,-841.67"/>
<polygon fill="grey" stroke="grey" stroke-width="2" points="136.13,-841.9 132.62,-831.9 129.13,-841.9 136.13,-841.9"/>
</g>
<!-- 13 -->
<g id="node14" class="node">
<title>13</title>
<path fill="none" stroke="#d89556" stroke-width="2" stroke-dasharray="5,2" d="M343,-756C343,-756 248.25,-756 248.25,-756 242.25,-756 236.25,-750 236.25,-744 236.25,-744 236.25,-732 236.25,-732 236.25,-726 242.25,-720 248.25,-720 248.25,-720 343,-720 343,-720 349,-720 355,-726 355,-732 355,-732 355,-744 355,-744 355,-750 349,-756 343,-756"/>
<text text-anchor="middle" x="295.62" y="-734.88" font-family="sans" font-size="10.00">markduplicates_bam</text>
</g>
<!-- 13&#45;&gt;5 -->
<g id="edge10" class="edge">
<title>13&#45;&gt;5</title>
<path fill="none" stroke="grey" stroke-width="2" d="M299.66,-719.34C301.19,-712.67 302.97,-704.89 304.68,-697.39"/>
<polygon fill="grey" stroke="grey" stroke-width="2" points="308.72,-697.43 307.53,-686.9 301.89,-695.87 308.72,-697.43"/>
</g>
<!-- 14 -->
<g id="node15" class="node">
<title>14</title>
<path fill="none" stroke="#d8d356" stroke-width="2" stroke-dasharray="5,2" d="M339.62,-828C339.62,-828 251.62,-828 251.62,-828 245.62,-828 239.62,-822 239.62,-816 239.62,-816 239.62,-804 239.62,-804 239.62,-798 245.62,-792 251.62,-792 251.62,-792 339.62,-792 339.62,-792 345.62,-792 351.62,-798 351.62,-804 351.62,-804 351.62,-816 351.62,-816 351.62,-822 345.62,-828 339.62,-828"/>
<text text-anchor="middle" x="295.62" y="-806.88" font-family="sans" font-size="10.00">filter_aligned_reads</text>
</g>
<!-- 14&#45;&gt;13 -->
<g id="edge20" class="edge">
<title>14&#45;&gt;13</title>
<path fill="none" stroke="grey" stroke-width="2" d="M295.62,-791.34C295.62,-784.75 295.62,-777.08 295.62,-769.67"/>
<polygon fill="grey" stroke="grey" stroke-width="2" points="299.13,-769.9 295.62,-759.9 292.13,-769.9 299.13,-769.9"/>
</g>
<!-- 15 -->
<g id="node16" class="node">
<title>15</title>
<path fill="none" stroke="#68d856" stroke-width="2" stroke-dasharray="5,2" d="M346.75,-972C346.75,-972 262.5,-972 262.5,-972 256.5,-972 250.5,-966 250.5,-960 250.5,-960 250.5,-948 250.5,-948 250.5,-942 256.5,-936 262.5,-936 262.5,-936 346.75,-936 346.75,-936 352.75,-936 358.75,-942 358.75,-948 358.75,-948 358.75,-960 358.75,-960 358.75,-966 352.75,-972 346.75,-972"/>
<text text-anchor="middle" x="304.62" y="-950.88" font-family="sans" font-size="10.00">sort_aligned_reads</text>
</g>
<!-- 15&#45;&gt;14 -->
<g id="edge21" class="edge">
<title>15&#45;&gt;14</title>
<path fill="none" stroke="grey" stroke-width="2" d="M270.69,-935.04C257.86,-926.32 244.67,-914.55 237.62,-900 230.65,-885.6 231.17,-878.64 237.62,-864 242.09,-853.86 249.57,-844.82 257.68,-837.21"/>
<polygon fill="grey" stroke="grey" stroke-width="2" points="260.04,-839.09 265.37,-829.93 255.49,-833.77 260.04,-839.09"/>
</g>
<!-- 19 -->
<g id="node20" class="node">
<title>19</title>
<path fill="none" stroke="#78d856" stroke-width="2" stroke-dasharray="5,2" d="M350.88,-900C350.88,-900 258.38,-900 258.38,-900 252.38,-900 246.38,-894 246.38,-888 246.38,-888 246.38,-876 246.38,-876 246.38,-870 252.38,-864 258.38,-864 258.38,-864 350.88,-864 350.88,-864 356.88,-864 362.88,-870 362.88,-876 362.88,-876 362.88,-888 362.88,-888 362.88,-894 356.88,-900 350.88,-900"/>
<text text-anchor="middle" x="304.62" y="-878.88" font-family="sans" font-size="10.00">aligned_reads_index</text>
</g>
<!-- 15&#45;&gt;19 -->
<g id="edge27" class="edge">
<title>15&#45;&gt;19</title>
<path fill="none" stroke="grey" stroke-width="2" d="M304.62,-935.34C304.62,-928.75 304.62,-921.08 304.62,-913.67"/>
<polygon fill="grey" stroke="grey" stroke-width="2" points="308.13,-913.9 304.62,-903.9 301.13,-913.9 308.13,-913.9"/>
</g>
<!-- 16&#45;&gt;15 -->
<g id="edge23" class="edge">
<title>16&#45;&gt;15</title>
<path fill="none" stroke="grey" stroke-width="2" d="M322.57,-1007.34C320.26,-1000.59 317.55,-992.69 314.95,-985.11"/>
<polygon fill="grey" stroke="grey" stroke-width="2" points="317.32,-983.23 310.76,-974.9 310.7,-985.5 317.32,-983.23"/>
</g>
<!-- 17 -->
<g id="node18" class="node">
<title>17</title>
<path fill="none" stroke="#afd856" stroke-width="2" stroke-dasharray="5,2" d="M358.38,-1116C358.38,-1116 298.88,-1116 298.88,-1116 292.88,-1116 286.88,-1110 286.88,-1104 286.88,-1104 286.88,-1092 286.88,-1092 286.88,-1086 292.88,-1080 298.88,-1080 298.88,-1080 358.38,-1080 358.38,-1080 364.38,-1080 370.38,-1086 370.38,-1092 370.38,-1092 370.38,-1104 370.38,-1104 370.38,-1110 364.38,-1116 358.38,-1116"/>
<text text-anchor="middle" x="328.62" y="-1094.88" font-family="sans" font-size="10.00">trim_fastq_pe</text>
</g>
<!-- 17&#45;&gt;16 -->
<g id="edge25" class="edge">
<title>17&#45;&gt;16</title>
<path fill="none" stroke="grey" stroke-width="2" d="M328.62,-1079.34C328.62,-1072.75 328.62,-1065.08 328.62,-1057.67"/>
<polygon fill="grey" stroke="grey" stroke-width="2" points="332.13,-1057.9 328.62,-1047.9 325.13,-1057.9 332.13,-1057.9"/>
</g>
<!-- 18 -->
<g id="node19" class="node">
<title>18</title>
<path fill="none" stroke="#56d0d8" stroke-width="2" stroke-dasharray="5,2" d="M420.25,-1211C420.25,-1211 237,-1211 237,-1211 231,-1211 225,-1205 225,-1199 225,-1199 225,-1164 225,-1164 225,-1158 231,-1152 237,-1152 237,-1152 420.25,-1152 420.25,-1152 426.25,-1152 432.25,-1158 432.25,-1164 432.25,-1164 432.25,-1199 432.25,-1199 432.25,-1205 426.25,-1211 420.25,-1211"/>
<text text-anchor="middle" x="328.62" y="-1197.5" font-family="sans" font-size="10.00">get_fastq_pe</text>
<text text-anchor="middle" x="328.62" y="-1184.75" font-family="sans" font-size="10.00">SRA: SRR13050996</text>
<text text-anchor="middle" x="328.62" y="-1172" font-family="sans" font-size="10.00">accession: SRR13050996</text>
<text text-anchor="middle" x="328.62" y="-1159.25" font-family="sans" font-size="10.00">platform: TruSeq_HG002_LAB01_REP01</text>
</g>
<!-- 18&#45;&gt;17 -->
<g id="edge26" class="edge">
<title>18&#45;&gt;17</title>
<path fill="none" stroke="grey" stroke-width="2" d="M328.62,-1151.08C328.62,-1144.07 328.62,-1136.59 328.62,-1129.54"/>
<polygon fill="grey" stroke="grey" stroke-width="2" points="332.13,-1129.76 328.62,-1119.76 325.13,-1129.76 332.13,-1129.76"/>
</g>
<!-- 19&#45;&gt;14 -->
<g id="edge22" class="edge">
<title>19&#45;&gt;14</title>
<path fill="none" stroke="grey" stroke-width="2" d="M302.35,-863.34C301.51,-856.75 300.52,-849.08 299.57,-841.67"/>
<polygon fill="grey" stroke="grey" stroke-width="2" points="302.67,-841.37 297.93,-831.9 295.73,-842.27 302.67,-841.37"/>
</g>
<!-- 20 -->
<g id="node21" class="node">
<title>20</title>
<path fill="none" stroke="#d89556" stroke-width="2" stroke-dasharray="5,2" d="M480,-756C480,-756 385.25,-756 385.25,-756 379.25,-756 373.25,-750 373.25,-744 373.25,-744 373.25,-732 373.25,-732 373.25,-726 379.25,-720 385.25,-720 385.25,-720 480,-720 480,-720 486,-720 492,-726 492,-732 492,-732 492,-744 492,-744 492,-750 486,-756 480,-756"/>
<text text-anchor="middle" x="432.62" y="-734.88" font-family="sans" font-size="10.00">markduplicates_bam</text>
</g>
<!-- 20&#45;&gt;5 -->
<g id="edge11" class="edge">
<title>20&#45;&gt;5</title>
<path fill="none" stroke="grey" stroke-width="2" d="M401.78,-719.15C387.13,-710.68 369.4,-700.42 353.55,-691.25"/>
<polygon fill="grey" stroke="grey" stroke-width="2" points="354.82,-687.79 344.42,-685.81 351.32,-693.85 354.82,-687.79"/>
</g>
<!-- 21 -->
<g id="node22" class="node">
<title>21</title>
<path fill="none" stroke="#d8d356" stroke-width="2" stroke-dasharray="5,2" d="M476.62,-828C476.62,-828 388.62,-828 388.62,-828 382.62,-828 376.62,-822 376.62,-816 376.62,-816 376.62,-804 376.62,-804 376.62,-798 382.62,-792 388.62,-792 388.62,-792 476.62,-792 476.62,-792 482.62,-792 488.62,-798 488.62,-804 488.62,-804 488.62,-816 488.62,-816 488.62,-822 482.62,-828 476.62,-828"/>
<text text-anchor="middle" x="432.62" y="-806.88" font-family="sans" font-size="10.00">filter_aligned_reads</text>
</g>
<!-- 21&#45;&gt;20 -->
<g id="edge28" class="edge">
<title>21&#45;&gt;20</title>
<path fill="none" stroke="grey" stroke-width="2" d="M432.62,-791.34C432.62,-784.75 432.62,-777.08 432.62,-769.67"/>
<polygon fill="grey" stroke="grey" stroke-width="2" points="436.13,-769.9 432.62,-759.9 429.13,-769.9 436.13,-769.9"/>
</g>
<!-- 22 -->
<g id="node23" class="node">
<title>22</title>
<path fill="none" stroke="#68d856" stroke-width="2" stroke-dasharray="5,2" d="M518.75,-972C518.75,-972 434.5,-972 434.5,-972 428.5,-972 422.5,-966 422.5,-960 422.5,-960 422.5,-948 422.5,-948 422.5,-942 428.5,-936 434.5,-936 434.5,-936 518.75,-936 518.75,-936 524.75,-936 530.75,-942 530.75,-948 530.75,-948 530.75,-960 530.75,-960 530.75,-966 524.75,-972 518.75,-972"/>
<text text-anchor="middle" x="476.62" y="-950.88" font-family="sans" font-size="10.00">sort_aligned_reads</text>
</g>
<!-- 22&#45;&gt;21 -->
<g id="edge29" class="edge">
<title>22&#45;&gt;21</title>
<path fill="none" stroke="grey" stroke-width="2" d="M442.69,-935.04C429.86,-926.32 416.67,-914.55 409.62,-900 400.47,-881.09 406.81,-858.1 415.13,-840.22"/>
<polygon fill="grey" stroke="grey" stroke-width="2" points="418.57,-841.27 420.04,-830.77 412.35,-838.05 418.57,-841.27"/>
</g>
<!-- 26 -->
<g id="node27" class="node">
<title>26</title>
<path fill="none" stroke="#78d856" stroke-width="2" stroke-dasharray="5,2" d="M522.88,-900C522.88,-900 430.38,-900 430.38,-900 424.38,-900 418.38,-894 418.38,-888 418.38,-888 418.38,-876 418.38,-876 418.38,-870 424.38,-864 430.38,-864 430.38,-864 522.88,-864 522.88,-864 528.88,-864 534.88,-870 534.88,-876 534.88,-876 534.88,-888 534.88,-888 534.88,-894 528.88,-900 522.88,-900"/>
<text text-anchor="middle" x="476.62" y="-878.88" font-family="sans" font-size="10.00">aligned_reads_index</text>
</g>
<!-- 22&#45;&gt;26 -->
<g id="edge35" class="edge">
<title>22&#45;&gt;26</title>
<path fill="none" stroke="grey" stroke-width="2" d="M476.62,-935.34C476.62,-928.75 476.62,-921.08 476.62,-913.67"/>
<polygon fill="grey" stroke="grey" stroke-width="2" points="480.13,-913.9 476.62,-903.9 473.13,-913.9 480.13,-913.9"/>
</g>
<!-- 23&#45;&gt;22 -->
<g id="edge31" class="edge">
<title>23&#45;&gt;22</title>
<path fill="none" stroke="grey" stroke-width="2" d="M484.85,-1007.34C483.81,-1000.75 482.61,-993.08 481.44,-985.67"/>
<polygon fill="grey" stroke="grey" stroke-width="2" points="484.45,-984.24 479.44,-974.9 477.53,-985.32 484.45,-984.24"/>
</g>
<!-- 24 -->
<g id="node25" class="node">
<title>24</title>
<path fill="none" stroke="#afd856" stroke-width="2" stroke-dasharray="5,2" d="M517.38,-1116C517.38,-1116 457.88,-1116 457.88,-1116 451.88,-1116 445.88,-1110 445.88,-1104 445.88,-1104 445.88,-1092 445.88,-1092 445.88,-1086 451.88,-1080 457.88,-1080 457.88,-1080 517.38,-1080 517.38,-1080 523.38,-1080 529.38,-1086 529.38,-1092 529.38,-1092 529.38,-1104 529.38,-1104 529.38,-1110 523.38,-1116 517.38,-1116"/>
<text text-anchor="middle" x="487.62" y="-1094.88" font-family="sans" font-size="10.00">trim_fastq_pe</text>
</g>
<!-- 24&#45;&gt;23 -->
<g id="edge33" class="edge">
<title>24&#45;&gt;23</title>
<path fill="none" stroke="grey" stroke-width="2" d="M487.62,-1079.34C487.62,-1072.75 487.62,-1065.08 487.62,-1057.67"/>
<polygon fill="grey" stroke="grey" stroke-width="2" points="491.13,-1057.9 487.62,-1047.9 484.13,-1057.9 491.13,-1057.9"/>
</g>
<!-- 25 -->
<g id="node26" class="node">
<title>25</title>
<path fill="none" stroke="#56d0d8" stroke-width="2" stroke-dasharray="5,2" d="M645.25,-1211C645.25,-1211 462,-1211 462,-1211 456,-1211 450,-1205 450,-1199 450,-1199 450,-1164 450,-1164 450,-1158 456,-1152 462,-1152 462,-1152 645.25,-1152 645.25,-1152 651.25,-1152 657.25,-1158 657.25,-1164 657.25,-1164 657.25,-1199 657.25,-1199 657.25,-1205 651.25,-1211 645.25,-1211"/>
<text text-anchor="middle" x="553.62" y="-1197.5" font-family="sans" font-size="10.00">get_fastq_pe</text>
<text text-anchor="middle" x="553.62" y="-1184.75" font-family="sans" font-size="10.00">SRA: SRR13050998</text>
<text text-anchor="middle" x="553.62" y="-1172" font-family="sans" font-size="10.00">accession: SRR13050998</text>
<text text-anchor="middle" x="553.62" y="-1159.25" font-family="sans" font-size="10.00">platform: TruSeq_HG002_LAB01_REP01</text>
</g>
<!-- 25&#45;&gt;24 -->
<g id="edge34" class="edge">
<title>25&#45;&gt;24</title>
<path fill="none" stroke="grey" stroke-width="2" d="M529.8,-1151.08C523.4,-1143.18 516.5,-1134.66 510.18,-1126.85"/>
<polygon fill="grey" stroke="grey" stroke-width="2" points="512.02,-1124.33 503.01,-1118.76 506.58,-1128.73 512.02,-1124.33"/>
</g>
<!-- 26&#45;&gt;21 -->
<g id="edge30" class="edge">
<title>26&#45;&gt;21</title>
<path fill="none" stroke="grey" stroke-width="2" d="M465.52,-863.34C461.02,-856.18 455.71,-847.73 450.68,-839.73"/>
<polygon fill="grey" stroke="grey" stroke-width="2" points="453.16,-837.51 444.88,-830.9 447.24,-841.23 453.16,-837.51"/>
</g>
<!-- 27&#45;&gt;2 -->
<g id="edge7" class="edge">
<title>27&#45;&gt;2</title>
<path fill="none" stroke="grey" stroke-width="2" d="M309.78,-503.15C295.13,-494.68 277.4,-484.42 261.55,-475.25"/>
<polygon fill="grey" stroke="grey" stroke-width="2" points="262.82,-471.79 252.42,-469.81 259.32,-477.85 262.82,-471.79"/>
</g>
<!-- 27&#45;&gt;32 -->
<g id="edge46" class="edge">
<title>27&#45;&gt;32</title>
<path fill="none" stroke="grey" stroke-width="2" d="M351.22,-503.34C355.47,-496.26 360.47,-487.92 365.22,-480"/>
<polygon fill="grey" stroke="grey" stroke-width="2" points="368.74,-481.28 370.88,-470.9 362.74,-477.68 368.74,-481.28"/>
</g>
<!-- 27&#45;&gt;40 -->
<g id="edge58" class="edge">
<title>27&#45;&gt;40</title>
<path fill="none" stroke="grey" stroke-width="2" d="M396.48,-503.06C425.2,-493.84 460.43,-482.53 490.71,-472.81"/>
<polygon fill="grey" stroke="grey" stroke-width="2" points="492.46,-475.28 500.91,-468.89 490.32,-468.61 492.46,-475.28"/>
</g>
<!-- 27&#45;&gt;44 -->
<g id="edge66" class="edge">
<title>27&#45;&gt;44</title>
<path fill="none" stroke="grey" stroke-width="2" d="M447.28,-503.05C502.79,-493.58 572.09,-481.57 642.35,-468.77"/>
<polygon fill="grey" stroke="grey" stroke-width="2" points="643.8,-471.69 653.01,-466.45 642.55,-464.81 643.8,-471.69"/>
</g>
<!-- 28 -->
<g id="node29" class="node">
<title>28</title>
<path fill="none" stroke="#88d856" stroke-width="2" d="M569.25,-180C569.25,-180 518,-180 518,-180 512,-180 506,-174 506,-168 506,-168 506,-156 506,-156 506,-150 512,-144 518,-144 518,-144 569.25,-144 569.25,-144 575.25,-144 581.25,-150 581.25,-156 581.25,-156 581.25,-168 581.25,-168 581.25,-174 575.25,-180 569.25,-180"/>
<text text-anchor="middle" x="543.62" y="-158.88" font-family="sans" font-size="10.00">gather_calls</text>
</g>
<!-- 28&#45;&gt;1 -->
<g id="edge3" class="edge">
<title>28&#45;&gt;1</title>
<path fill="none" stroke="grey" stroke-width="2" d="M543.62,-143.34C543.62,-136.75 543.62,-129.08 543.62,-121.67"/>
<polygon fill="grey" stroke="grey" stroke-width="2" points="547.13,-121.9 543.62,-111.9 540.13,-121.9 547.13,-121.9"/>
</g>
<!-- 29 -->
<g id="node30" class="node">
<title>29</title>
<path fill="none" stroke="#97d856" stroke-width="2" d="M463.5,-252C463.5,-252 413.75,-252 413.75,-252 407.75,-252 401.75,-246 401.75,-240 401.75,-240 401.75,-228 401.75,-228 401.75,-222 407.75,-216 413.75,-216 413.75,-216 463.5,-216 463.5,-216 469.5,-216 475.5,-222 475.5,-228 475.5,-228 475.5,-240 475.5,-240 475.5,-246 469.5,-252 463.5,-252"/>
<text text-anchor="middle" x="438.62" y="-230.88" font-family="sans" font-size="10.00">calls_to_vcf</text>
</g>
<!-- 29&#45;&gt;28 -->
<g id="edge37" class="edge">
<title>29&#45;&gt;28</title>
<path fill="none" stroke="grey" stroke-width="2" d="M465.39,-215.15C477.86,-206.84 492.89,-196.82 506.44,-187.79"/>
<polygon fill="grey" stroke="grey" stroke-width="2" points="508.53,-190.27 514.91,-181.81 504.64,-184.45 508.53,-190.27"/>
</g>
<!-- 30 -->
<g id="node31" class="node">
<title>30</title>
<path fill="none" stroke="#56b1d8" stroke-width="2" d="M432.75,-324C432.75,-324 390.5,-324 390.5,-324 384.5,-324 378.5,-318 378.5,-312 378.5,-312 378.5,-300 378.5,-300 378.5,-294 384.5,-288 390.5,-288 390.5,-288 432.75,-288 432.75,-288 438.75,-288 444.75,-294 444.75,-300 444.75,-300 444.75,-312 444.75,-312 444.75,-318 438.75,-324 432.75,-324"/>
<text text-anchor="middle" x="411.62" y="-302.88" font-family="sans" font-size="10.00">filter_calls</text>
</g>
<!-- 30&#45;&gt;29 -->
<g id="edge40" class="edge">
<title>30&#45;&gt;29</title>
<path fill="none" stroke="grey" stroke-width="2" d="M418.44,-287.34C421.07,-280.51 424.16,-272.5 427.12,-264.83"/>
<polygon fill="grey" stroke="grey" stroke-width="2" points="430.39,-265.49 430.72,-254.9 423.86,-262.97 430.39,-265.49"/>
</g>
<!-- 31 -->
<g id="node32" class="node">
<title>31</title>
<path fill="none" stroke="#56d8d0" stroke-width="2" d="M434.5,-396C434.5,-396 360.75,-396 360.75,-396 354.75,-396 348.75,-390 348.75,-384 348.75,-384 348.75,-372 348.75,-372 348.75,-366 354.75,-360 360.75,-360 360.75,-360 434.5,-360 434.5,-360 440.5,-360 446.5,-366 446.5,-372 446.5,-372 446.5,-384 446.5,-384 446.5,-390 440.5,-396 434.5,-396"/>
<text text-anchor="middle" x="397.62" y="-374.88" font-family="sans" font-size="10.00">call_methylation</text>
</g>
<!-- 31&#45;&gt;30 -->
<g id="edge41" class="edge">
<title>31&#45;&gt;30</title>
<path fill="none" stroke="grey" stroke-width="2" d="M401.16,-359.34C402.49,-352.67 404.05,-344.89 405.55,-337.39"/>
<polygon fill="grey" stroke="grey" stroke-width="2" points="409.52,-337.39 408.04,-326.9 402.65,-336.02 409.52,-337.39"/>
</g>
<!-- 32&#45;&gt;31 -->
<g id="edge42" class="edge">
<title>32&#45;&gt;31</title>
<path fill="none" stroke="grey" stroke-width="2" d="M386.41,-431.34C387.84,-424.67 389.51,-416.89 391.11,-409.39"/>
<polygon fill="grey" stroke="grey" stroke-width="2" points="395.12,-409.41 393.79,-398.9 388.27,-407.95 395.12,-409.41"/>
</g>
<!-- 33&#45;&gt;32 -->
<g id="edge44" class="edge">
<title>33&#45;&gt;32</title>
<path fill="none" stroke="grey" stroke-width="2" d="M546.79,-505.98C518.07,-496.37 480.32,-483.72 448.25,-472.98"/>
<polygon fill="grey" stroke="grey" stroke-width="2" points="448.87,-468.83 438.28,-468.97 446.65,-475.46 448.87,-468.83"/>
</g>
<!-- 33&#45;&gt;40 -->
<g id="edge56" class="edge">
<title>33&#45;&gt;40</title>
<path fill="none" stroke="grey" stroke-width="2" d="M583.3,-503.34C580.04,-496.43 576.21,-488.31 572.56,-480.56"/>
<polygon fill="grey" stroke="grey" stroke-width="2" points="575.49,-478.45 568.06,-470.9 569.16,-481.44 575.49,-478.45"/>
</g>
<!-- 33&#45;&gt;44 -->
<g id="edge64" class="edge">
<title>33&#45;&gt;44</title>
<path fill="none" stroke="grey" stroke-width="2" d="M628.08,-503.15C645.9,-494.43 667.57,-483.82 686.71,-474.46"/>
<polygon fill="grey" stroke="grey" stroke-width="2" points="688.79,-477.35 696.24,-469.81 685.72,-471.07 688.79,-477.35"/>
</g>
<!-- 34 -->
<g id="node35" class="node">
<title>34</title>
<path fill="none" stroke="#5663d8" stroke-width="2" d="M737.38,-540C737.38,-540 665.88,-540 665.88,-540 659.88,-540 653.88,-534 653.88,-528 653.88,-528 653.88,-516 653.88,-516 653.88,-510 659.88,-504 665.88,-504 665.88,-504 737.38,-504 737.38,-504 743.38,-504 749.38,-510 749.38,-516 749.38,-516 749.38,-528 749.38,-528 749.38,-534 743.38,-540 737.38,-540"/>
<text text-anchor="middle" x="701.62" y="-518.88" font-family="sans" font-size="10.00">split_candidates</text>
</g>
<!-- 34&#45;&gt;32 -->
<g id="edge47" class="edge">
<title>34&#45;&gt;32</title>
<path fill="none" stroke="grey" stroke-width="2" d="M652.89,-506.15C650.1,-505.4 647.33,-504.68 644.62,-504 628.01,-499.85 543.5,-482.88 474.88,-469.24"/>
<polygon fill="grey" stroke="grey" stroke-width="2" points="474.77,-465.25 464.28,-466.74 473.4,-472.12 474.77,-465.25"/>
</g>
<!-- 34&#45;&gt;40 -->
<g id="edge59" class="edge">
<title>34&#45;&gt;40</title>
<path fill="none" stroke="grey" stroke-width="2" d="M665.17,-503.15C647.35,-494.43 625.68,-483.82 606.54,-474.46"/>
<polygon fill="grey" stroke="grey" stroke-width="2" points="607.53,-471.07 597.01,-469.81 604.46,-477.35 607.53,-471.07"/>
</g>
<!-- 34&#45;&gt;44 -->
<g id="edge67" class="edge">
<title>34&#45;&gt;44</title>
<path fill="none" stroke="grey" stroke-width="2" d="M709.95,-503.34C713.21,-496.43 717.04,-488.31 720.69,-480.56"/>
<polygon fill="grey" stroke="grey" stroke-width="2" points="724.09,-481.44 725.19,-470.9 717.76,-478.45 724.09,-481.44"/>
</g>
<!-- 35 -->
<g id="node36" class="node">
<title>35</title>
<path fill="none" stroke="#56d8c1" stroke-width="2" stroke-dasharray="5,2" d="M717.88,-612C717.88,-612 649.38,-612 649.38,-612 643.38,-612 637.38,-606 637.38,-600 637.38,-600 637.38,-588 637.38,-588 637.38,-582 643.38,-576 649.38,-576 649.38,-576 717.88,-576 717.88,-576 723.88,-576 729.88,-582 729.88,-588 729.88,-588 729.88,-600 729.88,-600 729.88,-606 723.88,-612 717.88,-612"/>
<text text-anchor="middle" x="683.62" y="-590.88" font-family="sans" font-size="10.00">find_candidates</text>
</g>
<!-- 35&#45;&gt;34 -->
<g id="edge49" class="edge">
<title>35&#45;&gt;34</title>
<path fill="none" stroke="grey" stroke-width="2" d="M688.17,-575.34C689.88,-568.67 691.88,-560.89 693.81,-553.39"/>
<polygon fill="grey" stroke="grey" stroke-width="2" points="697.92,-553.46 697.02,-542.9 691.14,-551.72 697.92,-553.46"/>
</g>
<!-- 36&#45;&gt;35 -->
<g id="edge50" class="edge">
<title>36&#45;&gt;35</title>
<path fill="none" stroke="grey" stroke-width="2" d="M675.4,-647.34C676.44,-640.75 677.64,-633.08 678.81,-625.67"/>
<polygon fill="grey" stroke="grey" stroke-width="2" points="682.72,-625.32 680.81,-614.9 675.8,-624.24 682.72,-625.32"/>
</g>
<!-- 37 -->
<g id="node38" class="node">
<title>37</title>
<path fill="none" stroke="#97d856" stroke-width="2" d="M568.5,-252C568.5,-252 518.75,-252 518.75,-252 512.75,-252 506.75,-246 506.75,-240 506.75,-240 506.75,-228 506.75,-228 506.75,-222 512.75,-216 518.75,-216 518.75,-216 568.5,-216 568.5,-216 574.5,-216 580.5,-222 580.5,-228 580.5,-228 580.5,-240 580.5,-240 580.5,-246 574.5,-252 568.5,-252"/>
<text text-anchor="middle" x="543.62" y="-230.88" font-family="sans" font-size="10.00">calls_to_vcf</text>
</g>
<!-- 37&#45;&gt;28 -->
<g id="edge38" class="edge">
<title>37&#45;&gt;28</title>
<path fill="none" stroke="grey" stroke-width="2" d="M543.62,-215.34C543.62,-208.75 543.62,-201.08 543.62,-193.67"/>
<polygon fill="grey" stroke="grey" stroke-width="2" points="547.13,-193.9 543.62,-183.9 540.13,-193.9 547.13,-193.9"/>
</g>
<!-- 38 -->
<g id="node39" class="node">
<title>38</title>
<path fill="none" stroke="#56b1d8" stroke-width="2" d="M564.75,-324C564.75,-324 522.5,-324 522.5,-324 516.5,-324 510.5,-318 510.5,-312 510.5,-312 510.5,-300 510.5,-300 510.5,-294 516.5,-288 522.5,-288 522.5,-288 564.75,-288 564.75,-288 570.75,-288 576.75,-294 576.75,-300 576.75,-300 576.75,-312 576.75,-312 576.75,-318 570.75,-324 564.75,-324"/>
<text text-anchor="middle" x="543.62" y="-302.88" font-family="sans" font-size="10.00">filter_calls</text>
</g>
<!-- 38&#45;&gt;37 -->
<g id="edge52" class="edge">
<title>38&#45;&gt;37</title>
<path fill="none" stroke="grey" stroke-width="2" d="M543.62,-287.34C543.62,-280.75 543.62,-273.08 543.62,-265.67"/>
<polygon fill="grey" stroke="grey" stroke-width="2" points="547.13,-265.9 543.62,-255.9 540.13,-265.9 547.13,-265.9"/>
</g>
<!-- 39 -->
<g id="node40" class="node">
<title>39</title>
<path fill="none" stroke="#56d8d0" stroke-width="2" d="M580.5,-396C580.5,-396 506.75,-396 506.75,-396 500.75,-396 494.75,-390 494.75,-384 494.75,-384 494.75,-372 494.75,-372 494.75,-366 500.75,-360 506.75,-360 506.75,-360 580.5,-360 580.5,-360 586.5,-360 592.5,-366 592.5,-372 592.5,-372 592.5,-384 592.5,-384 592.5,-390 586.5,-396 580.5,-396"/>
<text text-anchor="middle" x="543.62" y="-374.88" font-family="sans" font-size="10.00">call_methylation</text>
</g>
<!-- 39&#45;&gt;38 -->
<g id="edge53" class="edge">
<title>39&#45;&gt;38</title>
<path fill="none" stroke="grey" stroke-width="2" d="M543.62,-359.34C543.62,-352.75 543.62,-345.08 543.62,-337.67"/>
<polygon fill="grey" stroke="grey" stroke-width="2" points="547.13,-337.9 543.62,-327.9 540.13,-337.9 547.13,-337.9"/>
</g>
<!-- 40&#45;&gt;39 -->
<g id="edge54" class="edge">
<title>40&#45;&gt;39</title>
<path fill="none" stroke="grey" stroke-width="2" d="M554.84,-431.34C553.41,-424.67 551.74,-416.89 550.14,-409.39"/>
<polygon fill="grey" stroke="grey" stroke-width="2" points="552.98,-407.95 547.46,-398.9 546.13,-409.41 552.98,-407.95"/>
</g>
<!-- 41 -->
<g id="node42" class="node">
<title>41</title>
<path fill="none" stroke="#97d856" stroke-width="2" d="M666.5,-252C666.5,-252 616.75,-252 616.75,-252 610.75,-252 604.75,-246 604.75,-240 604.75,-240 604.75,-228 604.75,-228 604.75,-222 610.75,-216 616.75,-216 616.75,-216 666.5,-216 666.5,-216 672.5,-216 678.5,-222 678.5,-228 678.5,-228 678.5,-240 678.5,-240 678.5,-246 672.5,-252 666.5,-252"/>
<text text-anchor="middle" x="641.62" y="-230.88" font-family="sans" font-size="10.00">calls_to_vcf</text>
</g>
<!-- 41&#45;&gt;28 -->
<g id="edge39" class="edge">
<title>41&#45;&gt;28</title>
<path fill="none" stroke="grey" stroke-width="2" d="M616.64,-215.15C605.24,-207.01 591.53,-197.22 579.08,-188.33"/>
<polygon fill="grey" stroke="grey" stroke-width="2" points="580.73,-184.78 570.56,-181.81 576.67,-190.47 580.73,-184.78"/>
</g>
<!-- 42 -->
<g id="node43" class="node">
<title>42</title>
<path fill="none" stroke="#56b1d8" stroke-width="2" d="M674.75,-324C674.75,-324 632.5,-324 632.5,-324 626.5,-324 620.5,-318 620.5,-312 620.5,-312 620.5,-300 620.5,-300 620.5,-294 626.5,-288 632.5,-288 632.5,-288 674.75,-288 674.75,-288 680.75,-288 686.75,-294 686.75,-300 686.75,-300 686.75,-312 686.75,-312 686.75,-318 680.75,-324 674.75,-324"/>
<text text-anchor="middle" x="653.62" y="-302.88" font-family="sans" font-size="10.00">filter_calls</text>
</g>
<!-- 42&#45;&gt;41 -->
<g id="edge60" class="edge">
<title>42&#45;&gt;41</title>
<path fill="none" stroke="grey" stroke-width="2" d="M650.6,-287.34C649.47,-280.75 648.15,-273.08 646.88,-265.67"/>
<polygon fill="grey" stroke="grey" stroke-width="2" points="649.83,-264.17 644.69,-254.9 642.93,-265.35 649.83,-264.17"/>
</g>
<!-- 43 -->
<g id="node44" class="node">
<title>43</title>
<path fill="none" stroke="#56d8d0" stroke-width="2" d="M696.5,-396C696.5,-396 622.75,-396 622.75,-396 616.75,-396 610.75,-390 610.75,-384 610.75,-384 610.75,-372 610.75,-372 610.75,-366 616.75,-360 622.75,-360 622.75,-360 696.5,-360 696.5,-360 702.5,-360 708.5,-366 708.5,-372 708.5,-372 708.5,-384 708.5,-384 708.5,-390 702.5,-396 696.5,-396"/>
<text text-anchor="middle" x="659.62" y="-374.88" font-family="sans" font-size="10.00">call_methylation</text>
</g>
<!-- 43&#45;&gt;42 -->
<g id="edge61" class="edge">
<title>43&#45;&gt;42</title>
<path fill="none" stroke="grey" stroke-width="2" d="M658.11,-359.34C657.55,-352.75 656.89,-345.08 656.25,-337.67"/>
<polygon fill="grey" stroke="grey" stroke-width="2" points="659.5,-337.57 655.16,-327.9 652.53,-338.16 659.5,-337.57"/>
</g>
<!-- 44&#45;&gt;43 -->
<g id="edge62" class="edge">
<title>44&#45;&gt;43</title>
<path fill="none" stroke="grey" stroke-width="2" d="M715.7,-431.34C707.33,-423.52 697.3,-414.16 688.05,-405.53"/>
<polygon fill="grey" stroke="grey" stroke-width="2" points="690.5,-403.17 680.81,-398.9 685.73,-408.28 690.5,-403.17"/>
</g>
<!-- 45 -->
<g id="node46" class="node">
<title>45</title>
<path fill="none" stroke="#5682d8" stroke-width="2" d="M1056.88,-180C1056.88,-180 946.38,-180 946.38,-180 940.38,-180 934.38,-174 934.38,-168 934.38,-168 934.38,-156 934.38,-156 934.38,-150 940.38,-144 946.38,-144 946.38,-144 1056.88,-144 1056.88,-144 1062.88,-144 1068.88,-150 1068.88,-156 1068.88,-156 1068.88,-168 1068.88,-168 1068.88,-174 1062.88,-180 1056.88,-180"/>
<text text-anchor="middle" x="1001.62" y="-158.88" font-family="sans" font-size="10.00">compute_avg_bedGraph</text>
</g>
<!-- 45&#45;&gt;1 -->
<g id="edge4" class="edge">
<title>45&#45;&gt;1</title>
<path fill="none" stroke="grey" stroke-width="2" d="M933.55,-150.6C840.57,-136.38 676.02,-111.23 593.6,-98.64"/>
<polygon fill="grey" stroke="grey" stroke-width="2" points="593.27,-94.74 582.86,-96.69 592.22,-101.66 593.27,-94.74"/>
</g>
<!-- 46 -->
<g id="node47" class="node">
<title>46</title>
<path fill="none" stroke="#d8b456" stroke-width="2" stroke-dasharray="5,2" d="M936.75,-252C936.75,-252 864.5,-252 864.5,-252 858.5,-252 852.5,-246 852.5,-240 852.5,-240 852.5,-228 852.5,-228 852.5,-222 858.5,-216 864.5,-216 864.5,-216 936.75,-216 936.75,-216 942.75,-216 948.75,-222 948.75,-228 948.75,-228 948.75,-240 948.75,-240 948.75,-246 942.75,-252 936.75,-252"/>
<text text-anchor="middle" x="900.62" y="-230.88" font-family="sans" font-size="10.00">filter_bedGraphs</text>
</g>
<!-- 46&#45;&gt;45 -->
<g id="edge68" class="edge">
<title>46&#45;&gt;45</title>
<path fill="none" stroke="grey" stroke-width="2" d="M926.37,-215.15C938.24,-206.93 952.54,-197.02 965.47,-188.06"/>
<polygon fill="grey" stroke="grey" stroke-width="2" points="967.7,-190.39 973.92,-181.81 963.71,-184.63 967.7,-190.39"/>
</g>
<!-- 47 -->
<g id="node48" class="node">
<title>47</title>
<path fill="none" stroke="#d88556" stroke-width="2" stroke-dasharray="5,2" d="M906.88,-324C906.88,-324 850.38,-324 850.38,-324 844.38,-324 838.38,-318 838.38,-312 838.38,-312 838.38,-300 838.38,-300 838.38,-294 844.38,-288 850.38,-288 850.38,-288 906.88,-288 906.88,-288 912.88,-288 918.88,-294 918.88,-300 918.88,-300 918.88,-312 918.88,-312 918.88,-318 912.88,-324 906.88,-324"/>
<text text-anchor="middle" x="878.62" y="-302.88" font-family="sans" font-size="10.00">process_data</text>
</g>
<!-- 47&#45;&gt;46 -->
<g id="edge71" class="edge">
<title>47&#45;&gt;46</title>
<path fill="none" stroke="grey" stroke-width="2" d="M884.18,-287.34C886.3,-280.59 888.78,-272.69 891.16,-265.11"/>
<polygon fill="grey" stroke="grey" stroke-width="2" points="895.34,-265.49 895,-254.9 888.66,-263.39 895.34,-265.49"/>
</g>
<!-- 48 -->
<g id="node49" class="node">
<title>48</title>
<path fill="none" stroke="#5673d8" stroke-width="2" stroke-dasharray="5,2" d="M996.75,-396C996.75,-396 738.5,-396 738.5,-396 732.5,-396 726.5,-390 726.5,-384 726.5,-384 726.5,-372 726.5,-372 726.5,-366 732.5,-360 738.5,-360 738.5,-360 996.75,-360 996.75,-360 1002.75,-360 1008.75,-366 1008.75,-372 1008.75,-372 1008.75,-384 1008.75,-384 1008.75,-390 1002.75,-396 996.75,-396"/>
<text text-anchor="middle" x="867.62" y="-381.25" font-family="sans" font-size="10.00">download_bedGraphs</text>
<text text-anchor="middle" x="867.62" y="-368.5" font-family="sans" font-size="10.00">bedGraph: GSM5649436_TruSeq_HG002_LAB01_REP02</text>
</g>
<!-- 48&#45;&gt;47 -->
<g id="edge72" class="edge">
<title>48&#45;&gt;47</title>
<path fill="none" stroke="grey" stroke-width="2" d="M870.4,-359.34C871.44,-352.75 872.64,-345.08 873.81,-337.67"/>
<polygon fill="grey" stroke="grey" stroke-width="2" points="877.72,-337.32 875.81,-326.9 870.8,-336.24 877.72,-337.32"/>
</g>
<!-- 49 -->
<g id="node50" class="node">
<title>49</title>
<path fill="none" stroke="#d8b456" stroke-width="2" stroke-dasharray="5,2" d="M1139.75,-252C1139.75,-252 1067.5,-252 1067.5,-252 1061.5,-252 1055.5,-246 1055.5,-240 1055.5,-240 1055.5,-228 1055.5,-228 1055.5,-222 1061.5,-216 1067.5,-216 1067.5,-216 1139.75,-216 1139.75,-216 1145.75,-216 1151.75,-222 1151.75,-228 1151.75,-228 1151.75,-240 1151.75,-240 1151.75,-246 1145.75,-252 1139.75,-252"/>
<text text-anchor="middle" x="1103.62" y="-230.88" font-family="sans" font-size="10.00">filter_bedGraphs</text>
</g>
<!-- 49&#45;&gt;45 -->
<g id="edge69" class="edge">
<title>49&#45;&gt;45</title>
<path fill="none" stroke="grey" stroke-width="2" d="M1077.62,-215.15C1065.63,-206.93 1051.2,-197.02 1038.14,-188.06"/>
<polygon fill="grey" stroke="grey" stroke-width="2" points="1039.81,-184.59 1029.58,-181.81 1035.85,-190.36 1039.81,-184.59"/>
</g>
<!-- 50 -->
<g id="node51" class="node">
<title>50</title>
<path fill="none" stroke="#d88556" stroke-width="2" stroke-dasharray="5,2" d="M1189.88,-324C1189.88,-324 1133.38,-324 1133.38,-324 1127.38,-324 1121.38,-318 1121.38,-312 1121.38,-312 1121.38,-300 1121.38,-300 1121.38,-294 1127.38,-288 1133.38,-288 1133.38,-288 1189.88,-288 1189.88,-288 1195.88,-288 1201.88,-294 1201.88,-300 1201.88,-300 1201.88,-312 1201.88,-312 1201.88,-318 1195.88,-324 1189.88,-324"/>
<text text-anchor="middle" x="1161.62" y="-302.88" font-family="sans" font-size="10.00">process_data</text>
</g>
<!-- 50&#45;&gt;49 -->
<g id="edge73" class="edge">
<title>50&#45;&gt;49</title>
<path fill="none" stroke="grey" stroke-width="2" d="M1146.99,-287.34C1140.85,-279.93 1133.57,-271.14 1126.74,-262.9"/>
<polygon fill="grey" stroke="grey" stroke-width="2" points="1128.53,-260.37 1119.46,-254.9 1123.14,-264.84 1128.53,-260.37"/>
</g>
<!-- 51 -->
<g id="node52" class="node">
<title>51</title>
<path fill="none" stroke="#5673d8" stroke-width="2" stroke-dasharray="5,2" d="M1296.75,-396C1296.75,-396 1038.5,-396 1038.5,-396 1032.5,-396 1026.5,-390 1026.5,-384 1026.5,-384 1026.5,-372 1026.5,-372 1026.5,-366 1032.5,-360 1038.5,-360 1038.5,-360 1296.75,-360 1296.75,-360 1302.75,-360 1308.75,-366 1308.75,-372 1308.75,-372 1308.75,-384 1308.75,-384 1308.75,-390 1302.75,-396 1296.75,-396"/>
<text text-anchor="middle" x="1167.62" y="-381.25" font-family="sans" font-size="10.00">download_bedGraphs</text>
<text text-anchor="middle" x="1167.62" y="-368.5" font-family="sans" font-size="10.00">bedGraph: GSM5649437_TruSeq_HG002_LAB01_REP01</text>
</g>
<!-- 51&#45;&gt;50 -->
<g id="edge74" class="edge">
<title>51&#45;&gt;50</title>
<path fill="none" stroke="grey" stroke-width="2" d="M1166.11,-359.34C1165.55,-352.75 1164.89,-345.08 1164.25,-337.67"/>
<polygon fill="grey" stroke="grey" stroke-width="2" points="1167.5,-337.57 1163.16,-327.9 1160.53,-338.16 1167.5,-337.57"/>
</g>
<!-- 52 -->
<g id="node53" class="node">
<title>52</title>
<path fill="none" stroke="#d8b456" stroke-width="2" stroke-dasharray="5,2" d="M1297.75,-252C1297.75,-252 1225.5,-252 1225.5,-252 1219.5,-252 1213.5,-246 1213.5,-240 1213.5,-240 1213.5,-228 1213.5,-228 1213.5,-222 1219.5,-216 1225.5,-216 1225.5,-216 1297.75,-216 1297.75,-216 1303.75,-216 1309.75,-222 1309.75,-228 1309.75,-228 1309.75,-240 1309.75,-240 1309.75,-246 1303.75,-252 1297.75,-252"/>
<text text-anchor="middle" x="1261.62" y="-230.88" font-family="sans" font-size="10.00">filter_bedGraphs</text>
</g>
<!-- 52&#45;&gt;45 -->
<g id="edge70" class="edge">
<title>52&#45;&gt;45</title>
<path fill="none" stroke="grey" stroke-width="2" d="M1212.72,-219.83C1175.63,-209.85 1123.89,-195.92 1080.91,-184.35"/>
<polygon fill="grey" stroke="grey" stroke-width="2" points="1081.03,-180.21 1070.46,-180.99 1079.21,-186.97 1081.03,-180.21"/>
</g>
<!-- 53 -->
<g id="node54" class="node">
<title>53</title>
<path fill="none" stroke="#d88556" stroke-width="2" stroke-dasharray="5,2" d="M1295.88,-324C1295.88,-324 1239.38,-324 1239.38,-324 1233.38,-324 1227.38,-318 1227.38,-312 1227.38,-312 1227.38,-300 1227.38,-300 1227.38,-294 1233.38,-288 1239.38,-288 1239.38,-288 1295.88,-288 1295.88,-288 1301.88,-288 1307.88,-294 1307.88,-300 1307.88,-300 1307.88,-312 1307.88,-312 1307.88,-318 1301.88,-324 1295.88,-324"/>
<text text-anchor="middle" x="1267.62" y="-302.88" font-family="sans" font-size="10.00">process_data</text>
</g>
<!-- 53&#45;&gt;52 -->
<g id="edge75" class="edge">
<title>53&#45;&gt;52</title>
<path fill="none" stroke="grey" stroke-width="2" d="M1266.11,-287.34C1265.55,-280.75 1264.89,-273.08 1264.25,-265.67"/>
<polygon fill="grey" stroke="grey" stroke-width="2" points="1267.5,-265.57 1263.16,-255.9 1260.53,-266.16 1267.5,-265.57"/>
</g>
<!-- 54 -->
<g id="node55" class="node">
<title>54</title>
<path fill="none" stroke="#5673d8" stroke-width="2" stroke-dasharray="5,2" d="M1594.62,-396C1594.62,-396 1338.62,-396 1338.62,-396 1332.62,-396 1326.62,-390 1326.62,-384 1326.62,-384 1326.62,-372 1326.62,-372 1326.62,-366 1332.62,-360 1338.62,-360 1338.62,-360 1594.62,-360 1594.62,-360 1600.62,-360 1606.62,-366 1606.62,-372 1606.62,-372 1606.62,-384 1606.62,-384 1606.62,-390 1600.62,-396 1594.62,-396"/>
<text text-anchor="middle" x="1466.62" y="-381.25" font-family="sans" font-size="10.00">download_bedGraphs</text>
<text text-anchor="middle" x="1466.62" y="-368.5" font-family="sans" font-size="10.00">bedGraph: GSM5649458_SPLAT_HG002_LAB01_REP02</text>
</g>
<!-- 54&#45;&gt;53 -->
<g id="edge76" class="edge">
<title>54&#45;&gt;53</title>
<path fill="none" stroke="grey" stroke-width="2" d="M1415.64,-359.06C1386.62,-348.86 1350.31,-336.08 1320.91,-325.75"/>
<polygon fill="grey" stroke="grey" stroke-width="2" points="1321.38,-322.49 1310.78,-322.48 1319.05,-329.1 1321.38,-322.49"/>
</g>
</g>
</svg>
